<?xml version="1.0" encoding="utf-8"?>
<!-- Generator: Adobe Illustrator 26.3.1, SVG Export Plug-In . SVG Version: 6.00 Build 0)  -->
<svg version="1.1" id="Layer_1" xmlns="http://www.w3.org/2000/svg" xmlns:xlink="http://www.w3.org/1999/xlink" x="0px" y="0px"
	 viewBox="0 0 130 130" style="enable-background:new 0 0 130 130;" xml:space="preserve">
<style type="text/css">
	.st0{clip-path:url(#SVGID_00000123410946549946387230000005569175376634352317_);}
	.st1{clip-path:url(#SVGID_00000040548471263337081230000000063130304534011285_);fill:#EDBBCA;}
	.st2{clip-path:url(#SVGID_00000137105591211207593420000005556970534940133803_);fill:#EDBBCA;}
	.st3{clip-path:url(#SVGID_00000046301472964780800760000017696924288377509517_);fill:#EDBBCA;}
	.st4{clip-path:url(#SVGID_00000012449568456501040360000002188719727956103303_);fill:#EDBBCA;}
	.st5{clip-path:url(#SVGID_00000111903339840039676840000007554902803674200208_);fill:#EDBBCA;}
	.st6{clip-path:url(#SVGID_00000049906276541057280640000007440095821926851261_);fill:#EDBBCA;}
	.st7{clip-path:url(#SVGID_00000118390533782876289970000004883957900706938035_);fill:#EDBBCA;}
	.st8{clip-path:url(#SVGID_00000139264721374626085660000016661111252328063151_);fill:#EDBBCA;}
	.st9{clip-path:url(#SVGID_00000070815047141115926960000005196294779712600752_);fill:#C3B1D1;}
	.st10{clip-path:url(#SVGID_00000107573067089939451790000018191907416557461439_);fill:#C3B1D1;}
	.st11{clip-path:url(#SVGID_00000135691688490039697500000008110467445676460458_);fill:#A5CCDF;}
	.st12{clip-path:url(#SVGID_00000129905992829359029920000017429396352426917026_);fill:#A5CCDF;}
	.st13{clip-path:url(#SVGID_00000005964102670639633220000002694605140922462101_);fill:#A5CCDF;}
	.st14{clip-path:url(#SVGID_00000014611769843784611680000011868605014312004767_);fill:#A5CCDF;}
	.st15{clip-path:url(#SVGID_00000142897534927882230160000008824407765868567960_);fill:#A5CCDF;}
	.st16{clip-path:url(#SVGID_00000147196555913415835950000018365135945402631086_);fill:#A5CCDF;}
	.st17{clip-path:url(#SVGID_00000144318143598583466550000001522723479177733807_);fill:#A5CCDF;}
</style>
<g>
	<g>
		<g>
			<defs>
				<rect id="SVGID_1_" x="-95.2" y="-44.3" width="329.6" height="233.1"/>
			</defs>
			<clipPath id="SVGID_00000034077192385751142310000008985060532247169460_">
				<use xlink:href="#SVGID_1_"  style="overflow:visible;"/>
			</clipPath>
			<g style="clip-path:url(#SVGID_00000034077192385751142310000008985060532247169460_);">
				<g>
					<defs>
						<rect id="SVGID_00000049181140556852094980000003257626850079270295_" x="-95.2" y="-44.3" width="329.6" height="233.1"/>
					</defs>
					<clipPath id="SVGID_00000040552074807678914120000017416897601318484154_">
						<use xlink:href="#SVGID_00000049181140556852094980000003257626850079270295_"  style="overflow:visible;"/>
					</clipPath>
					<path style="clip-path:url(#SVGID_00000040552074807678914120000017416897601318484154_);fill:#EDBBCA;" d="M32.6,71
						C30.5,77.1,31,84,33.8,89.7c-0.5-0.9,2-4.2,2.5-5c1.1-2,2.2-4,3.3-6.1c0.4-0.8,0.8-1.8,0.4-2.5c-0.2-0.3-0.5-0.5-0.8-0.7
						c-2.3-1.4-4.6-2.9-6.7-4.4"/>
				</g>
				<g>
					<defs>
						<rect id="SVGID_00000158750034487729956660000011940353410184469175_" x="-95.2" y="-44.3" width="329.6" height="233.1"/>
					</defs>
					<clipPath id="SVGID_00000047774487128932198780000004438294659127921586_">
						<use xlink:href="#SVGID_00000158750034487729956660000011940353410184469175_"  style="overflow:visible;"/>
					</clipPath>
					<path style="clip-path:url(#SVGID_00000047774487128932198780000004438294659127921586_);fill:#EDBBCA;" d="M96.2,61.9
						c-1.7-4.9-4.9-9.2-8.7-12.7c-1.6-1.5-3.6-2.8-5.6-3.8c-8.8-4.5-18.8-1.6-18.8-1.6c-3.4,0.4-6.7,1.1-9.8,2.3
						c-6.9,2.5-14.3,7-18.7,13c-2.4,3.3-2.8,6.8-0.7,10.3c0.9,1.5,2,2.8,3.3,3.9c0.7,0.6,1.4,1.1,2.1,1.6c1.1,0.7,2.7,1,2,2.7
						c-0.2,0.5-0.6,1-0.9,1.5c-0.7,1.1-0.6,2.8-0.3,4.1c0.7,2.4,2.5,4.4,4.6,5.6c5.8,3.4,13.2,3.2,19.6,3.1
						c5.2-0.1,10.4-0.2,15.5-1.3c5-1.2,10-3.6,13.3-7.5C97.8,77.2,98.6,68.9,96.2,61.9 M61.2,70.1c-4.2,0-7.7-2.4-7.7-5.3
						c0-2.9,3.4-5.3,7.7-5.3s7.7,2.4,7.7,5.3C68.9,67.8,65.5,70.1,61.2,70.1"/>
				</g>
				<g>
					<defs>
						<rect id="SVGID_00000068669954950923962160000013085927068267464584_" x="-95.2" y="-44.3" width="329.6" height="233.1"/>
					</defs>
					<clipPath id="SVGID_00000158711940250402035740000005443081495491636905_">
						<use xlink:href="#SVGID_00000068669954950923962160000013085927068267464584_"  style="overflow:visible;"/>
					</clipPath>
					<path style="clip-path:url(#SVGID_00000158711940250402035740000005443081495491636905_);fill:#EDBBCA;" d="M28.6,40.9
						c0.4,1.5,0.7,2.4,0.9,2.8c0.1,0.3,0.1,0.6,0,0.9c-0.1,0.3-0.3,0.6-0.5,0.7c-0.2,0.1-0.4,0.2-0.6,0.3C28,45.9,27.6,46,27.2,46
						c-0.3,0-0.6,0-0.9-0.2c-0.3-0.1-0.5-0.3-0.6-0.6c-1.7-4-3.3-8-4.1-12.2c-0.7-4,0.3-6.7,3-7.8c0.2-0.1,0.3-0.1,0.5-0.2
						c3-1.2,5.5-1.3,6.5-0.4c3.1,2.8,4.4,9.2,5.8,13.4c0.3,0.9,0.4,1.3,0.7,2.2c0.1,0.2,0,0.6-0.1,0.9c-0.1,0.4-0.3,0.6-0.6,0.8
						c0,0-0.1,0-0.1,0c-0.5,0.3-1.2,0.7-1.9,0.9c-0.1,0-0.4,0.1-1,0.3c-0.5,0.1-1,0.2-1.5,0.1c-0.5,0-0.8-0.3-1-0.7
						c-0.4-1-0.6-1.5-1-2.5C30,40.4,29.6,40.6,28.6,40.9 M26.3,28.8c-0.1,0.6,0,1.4,0.1,2.4c0.2,1.5,0.5,3.2,1,5.1
						c0.7-0.3,1-0.4,1.7-0.7C27.9,32.9,27.4,31.5,26.3,28.8"/>
				</g>
				<g>
					<defs>
						<rect id="SVGID_00000077323828109058334150000011620864412307947454_" x="-95.2" y="-44.3" width="329.6" height="233.1"/>
					</defs>
					<clipPath id="SVGID_00000173138903967098754700000009846179706223314850_">
						<use xlink:href="#SVGID_00000077323828109058334150000011620864412307947454_"  style="overflow:visible;"/>
					</clipPath>
					<path style="clip-path:url(#SVGID_00000173138903967098754700000009846179706223314850_);fill:#EDBBCA;" d="M46.6,35.3
						c0.5-0.1,1.3-0.4,2.4-0.6s2-0.5,2.8-0.8c0.3,0,0.6,0,1,0.2c0.4,0.2,0.6,0.4,0.8,0.7c0.2,0.4,0.3,0.9,0.4,1.4c0,0.1,0,0.1,0,0.2
						c0,0.1,0,0.1,0,0.1c0,0.3,0,0.6-0.2,0.9c-0.2,0.3-0.4,0.5-0.6,0.6c-1.7,0.5-3.8,1-6.4,1.6c-0.9,0.2-1.7,0.4-2.4,0.4
						c-0.1,0-0.4,0.1-0.8,0.1c-0.4,0-0.9,0-1.4,0c-0.5-0.1-0.9-0.3-1.1-0.7c-0.3-0.6-0.7-1.7-1.2-3.2c-0.3-0.9-0.7-2-1-3.3
						c-0.2-0.8-0.6-2-1-3.7c-0.5-1.7-1.1-3.8-1.6-6.4c-0.2-0.7,0.4-1.4,1.5-1.9c0.6-0.3,1.5-0.6,2.5-0.8c0.4-0.1,0.8-0.2,1.2-0.2
						s0.9-0.1,1.3-0.1c0.4,0,0.7,0.1,1.1,0.4s0.5,0.5,0.6,0.8c0,0,0,0.1,0,0.1c0.2,2.9,0.5,5.5,0.9,7.8c0.2,1.1,0.4,2.1,0.6,3.2
						c0.2,0.7,0.3,1.4,0.4,2C46.5,34.7,46.5,35.1,46.6,35.3"/>
				</g>
				<g>
					<defs>
						<rect id="SVGID_00000141414145771939064380000002282383928834658964_" x="-95.2" y="-44.3" width="329.6" height="233.1"/>
					</defs>
					<clipPath id="SVGID_00000098932964232087495150000011679184763094868878_">
						<use xlink:href="#SVGID_00000141414145771939064380000002282383928834658964_"  style="overflow:visible;"/>
					</clipPath>
					<path style="clip-path:url(#SVGID_00000098932964232087495150000011679184763094868878_);fill:#EDBBCA;" d="M62.2,20.6
						c0,1.8,0.1,2.7,0.1,4.5c0.1,3.5,0.1,6.6,0.1,9.1c0,0,0.1,0.1,0.4,0.3c0.3,0.2,0.5,0.4,0.5,0.7c0.1,0.2,0.1,0.4,0.1,0.6
						c0,0.1,0,0.2,0,0.3c0,0.1,0,0.2-0.1,0.3c0,0.2-0.2,0.5-0.4,0.7c-0.2,0.2-0.4,0.3-0.7,0.4c-0.7,0.1-1.6,0.2-2.5,0.3
						c-0.7,0-1.5,0.1-2.2,0.1c-0.5,0-0.8,0.1-1.1,0.1c-0.3,0-0.6-0.1-0.9-0.3c-0.4-0.2-0.6-0.5-0.6-0.8c0,0,0-0.1,0-0.1
						c0-0.1-0.1-0.3-0.1-0.5c0-0.1,0-0.3,0-0.5c0-0.2,0.2-0.5,0.4-0.8c0.2-0.2,0.3-0.4,0.3-0.4c-0.1-0.5-0.1-0.8-0.1-1.3
						c-0.2-1.6-0.4-3.3-0.6-5.4c-0.2-2-0.4-3.8-0.5-5.4c-0.1-0.5-0.1-0.8-0.1-1.3c-0.2,0-0.4-0.1-0.8-0.3c-0.4-0.2-0.6-0.4-0.7-0.7
						c0-0.1,0-0.2-0.1-0.4c0-0.1-0.1-0.3-0.1-0.4c0-0.1,0-0.2,0-0.3c0-0.1,0-0.2,0-0.3c0-0.3,0.2-0.5,0.5-0.8s0.6-0.4,1-0.5
						c0.5,0,0.7-0.1,1.1-0.1c1.2-0.1,2.3-0.2,3.5-0.2c1,0,2-0.1,2.9-0.1c0.3,0,0.6,0.1,1,0.3c0.4,0.2,0.6,0.4,0.7,0.7
						c0.1,0.3,0.2,0.6,0.2,0.8c0,0.1,0,0.2,0,0.3c0,0.1,0,0.1,0,0.2c-0.1,0.3-0.3,0.5-0.7,0.8C62.6,20.4,62.4,20.5,62.2,20.6"/>
				</g>
				<g>
					<defs>
						<rect id="SVGID_00000072987428547964396860000008598782041325026964_" x="-95.2" y="-44.3" width="329.6" height="233.1"/>
					</defs>
					<clipPath id="SVGID_00000122718327816268679690000005943949333885406618_">
						<use xlink:href="#SVGID_00000072987428547964396860000008598782041325026964_"  style="overflow:visible;"/>
					</clipPath>
					<path style="clip-path:url(#SVGID_00000122718327816268679690000005943949333885406618_);fill:#EDBBCA;" d="M65,19.9
						c0-0.5,0-0.8,0-1.3c0-0.3,0.2-0.6,0.5-0.8c0.4-0.3,0.7-0.4,1.1-0.4c1.5,0,2.9,0.1,4.4,0.1c1.4,0,2.9,0.1,4.3,0.3
						c0.8,0.1,1.5,0.2,2.3,0.3c0.7,0.1,1.3,0.2,1.9,0.3c0.3,0,0.6,0.2,0.9,0.6c0.3,0.3,0.4,0.6,0.4,0.9c-0.1,0.5-0.1,0.8-0.2,1.3
						c0,0.3-0.3,0.5-0.6,0.7c-0.4,0.2-0.7,0.3-1.1,0.3c-1.1-0.1-1.6-0.2-2.7-0.3c0,0.2-0.1,0.6-0.1,1.4c-0.1,0.8-0.2,1.7-0.3,2.7
						c-0.3,2.2-0.5,4.4-0.8,6.6c-0.3,2.2-0.4,3.6-0.5,4.3c0,0.2-0.1,0.4-0.4,0.7c-0.2,0.2-0.5,0.4-0.8,0.4c-0.6,0.1-1.3,0-2.2,0
						c-0.7,0-1.5-0.2-2.5-0.4c-0.1-0.1-0.3-0.3-0.4-0.4c-0.1-0.1-0.2-0.3-0.4-0.5c0-0.2,0-0.3,0-0.5c0.2-3.2,0.3-6.1,0.5-8.8
						c0.2-2.7,0.4-4.7,0.6-6.1c-1,0-1.5-0.1-2.5-0.1c-0.3,0-0.7-0.1-1-0.4C65.2,20.4,65,20.1,65,19.9"/>
				</g>
				<g>
					<defs>
						<rect id="SVGID_00000036940923110749866570000012998547150940206498_" x="-95.2" y="-44.3" width="329.6" height="233.1"/>
					</defs>
					<clipPath id="SVGID_00000098186516775164910790000010935577878116158347_">
						<use xlink:href="#SVGID_00000036940923110749866570000012998547150940206498_"  style="overflow:visible;"/>
					</clipPath>
					<path style="clip-path:url(#SVGID_00000098186516775164910790000010935577878116158347_);fill:#EDBBCA;" d="M81.8,34.8
						c-0.5,1.4-0.8,2.4-0.9,2.8c0,0.3-0.2,0.5-0.5,0.7c-0.3,0.2-0.6,0.3-0.8,0.4c-0.2,0-0.4,0-0.6-0.1c-0.4-0.1-0.8-0.2-1.2-0.4
						c-0.2-0.1-0.4-0.4-0.6-0.6C77,37.3,77,37,77,36.7c0.9-4.2,1.8-8.4,3.7-12.4c1.7-3.7,4.1-5.3,6.9-4.7c0.2,0,0.3,0.1,0.5,0.1
						c3.2,0.7,5.2,2,5.5,3.4c1,4-1.7,10-2.9,14.3c-0.3,0.9-0.4,1.3-0.7,2.2c-0.1,0.3-0.3,0.5-0.6,0.7c-0.3,0.2-0.6,0.3-0.9,0.3
						c0,0-0.1,0-0.1,0c-0.6,0-1.3-0.1-2.1-0.3c-0.1,0-0.4-0.1-0.9-0.3c-0.5-0.2-0.9-0.4-1.3-0.8c-0.4-0.3-0.5-0.7-0.4-1.2
						c0.2-1.1,0.4-1.6,0.6-2.6C83.3,35.1,82.8,35,81.8,34.8 M86.8,23.5c-0.4,0.4-0.8,1.1-1.3,2c-0.7,1.4-1.4,3-2.1,4.7
						c0.7,0.1,1.1,0.2,1.8,0.4C85.9,27.8,86.2,26.3,86.8,23.5"/>
				</g>
				<g>
					<defs>
						<rect id="SVGID_00000159447204346107669160000011631590098349278627_" x="-95.2" y="-44.3" width="329.6" height="233.1"/>
					</defs>
					<clipPath id="SVGID_00000027578376510523481460000017698646751137435036_">
						<use xlink:href="#SVGID_00000159447204346107669160000011631590098349278627_"  style="overflow:visible;"/>
					</clipPath>
					<path style="clip-path:url(#SVGID_00000027578376510523481460000017698646751137435036_);fill:#EDBBCA;" d="M97,43.8
						c-0.6-0.3-1-0.6-1.5-0.8c-0.4-0.3-0.8-0.6-1.3-1c-0.4-0.4-0.8-0.9-1.2-1.4c-0.3-0.5-0.6-1.1-0.7-1.7c-0.1-0.6-0.1-1.4,0.2-2.1
						c0.1-0.4,0.4-0.9,0.7-1.5c0.1-0.2,0.3-0.3,0.6-0.5c0.3-0.1,0.6-0.2,0.9-0.2c0.4,0,0.7,0.1,1.1,0.3c0.1,0,0.3,0.1,0.5,0.2
						c0.2,0.1,0.4,0.2,0.5,0.3c0.2,0.2,0.4,0.4,0.5,0.7c0.1,0.3,0.1,0.6,0.1,0.8c-0.1,0.2-0.1,0.5-0.2,0.8c-0.1,0.3-0.1,0.6-0.1,1
						s0.1,0.7,0.2,0.9s0.4,0.5,0.8,0.7c0.1,0,0.1,0,0.2,0.1c0.4,0.1,0.8,0.2,1.1,0.2c0.3,0,0.6,0,0.8,0c0.3,0,0.4-0.1,0.5-0.3
						c0-0.1,0-0.2,0-0.3c-0.2-0.5-0.4-1-0.7-1.5c-0.3-0.5-0.7-1-1.1-1.5c-0.5-0.6-1-1.3-1.5-1.9s-0.8-1.4-1.1-2.2
						c-0.3-0.8-0.3-1.8-0.2-2.8c0.1-0.4,0.2-0.9,0.3-1.2c0.3-1,0.8-1.8,1.5-2.4c0.7-0.6,1.5-1.1,2.4-1.4c0.9-0.3,1.9-0.4,2.9-0.3
						c1,0.1,2,0.3,3,0.7c0.1,0,0.1,0,0.2,0.1c1.2,0.6,2.1,1.3,2.7,2.1c0.6,0.8,0.9,1.6,1,2.3c0.1,0.8,0.1,1.5-0.1,2.1
						c-0.1,0.6-0.3,1-0.4,1.3c-0.1,0.2-0.3,0.4-0.7,0.5c-0.4,0.2-0.7,0.2-1.1,0.1c-0.1,0-0.3,0-0.5-0.1c-0.2-0.1-0.5-0.2-0.7-0.3
						c-0.1,0-0.2-0.1-0.4-0.2c-0.1-0.1-0.3-0.2-0.4-0.3c-0.2-0.2-0.4-0.4-0.6-0.8c-0.2-0.4-0.2-0.7-0.1-0.9c0.1-0.2,0.2-0.6,0.3-0.9
						s0.1-0.8,0-1.1c-0.1-0.4-0.2-0.6-0.5-0.8c0,0,0,0-0.1,0c-0.4-0.2-0.7-0.2-0.8-0.1c-0.2,0.1-0.4,0.3-0.6,0.7
						c-0.2,0.4-0.2,0.9-0.1,1.3c0.1,0.4,0.5,1,1,1.8c0.4,0.5,0.8,1.2,1.1,1.9c0.4,0.7,0.7,1.5,0.9,2.3c0.2,0.8,0.3,1.7,0.3,2.6
						c0,0.9-0.3,1.8-0.8,2.8c0,0-0.1,0.2-0.3,0.4c-0.2,0.2-0.4,0.5-0.7,0.8c-0.3,0.3-0.7,0.6-1.2,0.9c-0.5,0.3-1,0.5-1.6,0.7
						c-0.6,0.2-1.3,0.2-2,0.1c-0.7-0.1-1.6-0.3-2.5-0.7c-0.1,0-0.2-0.1-0.3-0.2C97.3,44,97.1,43.9,97,43.8"/>
				</g>
				<g>
					<defs>
						<rect id="SVGID_00000005986978926634476750000015902337690943206546_" x="-95.2" y="-44.3" width="329.6" height="233.1"/>
					</defs>
					<clipPath id="SVGID_00000023964265788090980450000017607552018094864514_">
						<use xlink:href="#SVGID_00000005986978926634476750000015902337690943206546_"  style="overflow:visible;"/>
					</clipPath>
					<path style="clip-path:url(#SVGID_00000023964265788090980450000017607552018094864514_);fill:#C3B1D1;" d="M12.1,99.2
						c0.1-0.3,0.4-1,0.9-1.8c0.4-0.9,0.9-1.8,1.4-2.8c0.7-1.4,1.4-2.7,2.1-4c0.7-1.3,1.1-2.1,1.3-2.5c0.1-0.1,0.2-0.3,0.4-0.4
						c0.2-0.1,0.4-0.1,0.6-0.1c1.8,0.9,2.6,1.3,4.4,2.2c0.2,0.1,0.4,0.3,0.8,0.5s0.6,0.7,0.9,1.3c0.2,0.6,0.3,1.4,0.3,2.4
						c0,1-0.4,2.3-1,3.8c0,0,0,0,0,0.1c-0.7,1.6-1.3,2.8-2.1,3.5s-1.5,1.2-2.2,1.4c-0.7,0.2-1.4,0.2-1.9,0.1c-0.5-0.1-0.9-0.2-1-0.3
						c0,0,0,0-0.1,0c-1.3-0.6-1.9-0.9-3.1-1.5c-0.1,0-0.3-0.2-0.6-0.4s-0.6-0.4-0.8-0.7C12.1,99.8,12,99.5,12.1,99.2 M20.8,95.9
						c0.2-0.6,0.4-1.1,0.5-1.5c0.1-0.5,0.2-0.9,0.3-1.2c0.1-0.3,0.1-0.6,0.1-0.8c0-0.3-0.2-0.6-0.4-0.8c-0.1,0-0.2,0-0.3,0
						c-0.1,0-0.3,0.5-0.7,1.3c-0.2,0.4-0.4,0.8-0.6,1.2c-0.2,0.4-0.4,0.8-0.5,1.2c-0.2,0.4-0.3,0.6-0.4,0.9
						c-0.4,0.7-0.8,1.5-1.1,2.1c-0.2,0.4-0.3,0.8-0.4,1.1c0,0.2,0,0.4,0,0.5c0,0.1,0.1,0.2,0.2,0.2c0,0,0,0,0,0
						c0.3,0.1,0.8-0.2,1.4-1.1c0.7-0.9,1.1-1.6,1.4-2.2C20.6,96.5,20.7,96.3,20.8,95.9"/>
				</g>
				<g>
					<defs>
						<rect id="SVGID_00000101084011703219950890000014354120428996263808_" x="-95.2" y="-44.3" width="329.6" height="233.1"/>
					</defs>
					<clipPath id="SVGID_00000168118196100774309520000001177758794782885776_">
						<use xlink:href="#SVGID_00000101084011703219950890000014354120428996263808_"  style="overflow:visible;"/>
					</clipPath>
					<path style="clip-path:url(#SVGID_00000168118196100774309520000001177758794782885776_);fill:#C3B1D1;" d="M28.2,92.9
						c0.1-0.1,0.2-0.3,0.3-0.4c0.2-0.1,0.3-0.2,0.4-0.2c0.1,0,0.3,0,0.4,0c0.6,0.1,1.2,0.3,1.8,0.5c0.8,0.3,1.6,0.5,2.3,0.7
						c0.3,0.1,0.5,0.2,0.8,0.2c2.1,0.6,3,1.2,2.9,1.8c0,0,0,0.1,0,0.1c0,0.1-0.1,0.3-0.2,0.5c-0.1,0.2-0.2,0.5-0.3,0.7
						c-0.1,0.1-0.3,0.3-0.5,0.3c-0.2,0.1-0.8,0-1.6-0.2s-1.5-0.4-2-0.6c-0.3-0.1-0.5-0.2-0.8-0.3c-0.3,0.8-0.4,1.2-0.7,2.1
						c0,0,0.1,0,0.1,0c0.1,0,0.4,0.1,0.7,0.2c0.3,0.1,0.6,0.2,0.8,0.2c0.2,0.1,0.4,0.2,0.6,0.5c0.1,0.2,0.2,0.4,0.2,0.6
						c0,0,0,0,0,0.1c0,0.1,0,0.1,0,0.2h0c-0.1,0.4-0.2,0.6-0.3,1h0c0,0.1-0.1,0.1-0.1,0.2c0,0,0,0.1,0,0.1c-0.1,0.2-0.3,0.3-0.6,0.4
						c-0.3,0.1-0.5,0.1-0.8,0c-0.2-0.1-0.4-0.1-0.8-0.3c-0.3-0.1-0.5-0.2-0.7-0.3c0,0-0.1,0-0.1,0c0,0.2-0.2,0.8-0.6,1.8
						c-0.2,0.5-0.2,0.7-0.4,1.2c0.3,0.1,0.4,0.1,0.7,0.2c1.7,0.6,2.8,0.8,3.4,0.8c0,0,0.1,0,0.2,0c0.4,0.1,0.6,0.4,0.6,0.9
						c0,0.2,0,0.5-0.1,0.8c-0.1,0.3-0.1,0.5-0.1,0.6c-0.1,0.3-0.5,0.4-1.2,0.4c-0.7-0.1-2.3-0.4-4.7-1.2c-0.2-0.1-0.3-0.1-0.6-0.2
						c-0.2-0.1-0.6-0.2-1.2-0.4c-0.6-0.2-1.1-0.5-1.6-0.8c-0.5-0.4-0.6-0.8-0.5-1.3c0.9-2.8,1.6-4.8,2-5.9
						C26.4,97.1,27.1,95.3,28.2,92.9"/>
				</g>
				<g>
					<defs>
						<rect id="SVGID_00000023992341417932142800000007199718673445004164_" x="-95.2" y="-44.3" width="329.6" height="233.1"/>
					</defs>
					<clipPath id="SVGID_00000040560765266044851850000009687306098224017280_">
						<use xlink:href="#SVGID_00000023992341417932142800000007199718673445004164_"  style="overflow:visible;"/>
					</clipPath>
					<path style="clip-path:url(#SVGID_00000040560765266044851850000009687306098224017280_);fill:#A5CCDF;" d="M46.2,111.4
						c-3.7-0.6-5.1-3.2-4.2-7.5c0.1-0.4,0.2-0.8,0.3-1.2c0-0.1,0-0.1,0-0.2c0.5-2.4,1.4-4,2.5-4.8c1-0.7,2.1-0.9,3.3-0.7
						c0.2,0,0.3,0.1,0.5,0.1c0,0,0,0,0.1,0s0.2,0,0.5,0.1c0.3,0.1,0.6,0.3,1,0.5c0.4,0.2,0.7,0.6,1,1c0.3,0.5,0.4,1.1,0.5,1.8
						c0,0.2-0.1,0.4-0.3,0.6c-0.2,0.2-0.4,0.3-0.6,0.3c-0.2,0-0.4,0-0.7-0.1c-0.1,0-0.2,0-0.3,0c-0.2-0.1-0.4-0.3-0.6-0.5
						c-0.1-0.2-0.2-0.4-0.2-0.6c0-0.2-0.1-0.5-0.2-0.7c-0.2-0.2-0.3-0.3-0.5-0.3c-0.1,0-0.2,0.2-0.4,0.7c-0.1,0.5-0.3,1.1-0.5,1.9
						c-0.2,0.8-0.3,1.6-0.5,2.6c0,0.3-0.1,0.5-0.1,0.8c-0.4,2.4-0.4,3.7-0.1,3.8c0.3,0.1,0.7-0.2,1.1-0.7c0.3-0.4,0.8-0.6,1.3-0.5
						c0.1,0,0.2,0,0.4,0.1c0.7,0.2,1,0.6,0.9,1.1c0,0,0,0.2-0.1,0.5c-0.1,0.3-0.3,0.6-0.7,1c-0.4,0.4-1,0.6-1.5,0.8
						C47.6,111.5,46.9,111.6,46.2,111.4"/>
				</g>
				<g>
					<defs>
						<rect id="SVGID_00000041269772397511094240000016536163024284845698_" x="-95.2" y="-44.3" width="329.6" height="233.1"/>
					</defs>
					<clipPath id="SVGID_00000074432189746372392670000018133662148921150119_">
						<use xlink:href="#SVGID_00000041269772397511094240000016536163024284845698_"  style="overflow:visible;"/>
					</clipPath>
					<path style="clip-path:url(#SVGID_00000074432189746372392670000018133662148921150119_);fill:#A5CCDF;" d="M56.4,112.6
						c-1.1-0.1-2.1-0.4-2.9-1s-1.4-1.4-1.7-2.4c-0.3-1-0.4-2.3-0.2-3.8c0-0.4,0.1-0.8,0.2-1.2c0.2-1.2,0.6-2.2,1-3
						c0.4-0.8,0.9-1.4,1.4-1.8c0.5-0.4,1-0.7,1.5-0.9c0.5-0.2,0.9-0.3,1.3-0.3c0.4,0,0.6,0,0.7,0c0,0,0.1,0,0.1,0
						c0.1,0,0.2,0,0.5,0.1c0.2,0.1,0.5,0.2,0.8,0.3c0.3,0.2,0.6,0.4,0.9,0.8c0.3,0.3,0.6,0.8,0.9,1.4c0.3,0.6,0.5,1.3,0.7,2.1
						c0.2,0.9,0.2,1.9,0.2,3.1c0,0.6-0.1,1.2-0.2,1.9c-0.1,0.6-0.3,1.3-0.6,1.8c-0.3,0.6-0.6,1.1-1,1.6c-0.4,0.5-0.9,0.8-1.5,1.1
						C57.8,112.6,57.1,112.7,56.4,112.6 M56.6,105.6c0,0.3-0.1,0.6-0.1,1c-0.1,1.2-0.1,2.1,0,2.6c0.1,0.6,0.2,0.9,0.3,0.9h0
						c0.4,0,0.7-0.3,1.2-1c0.4-0.7,0.7-1.8,0.9-3.3c0-0.2,0-0.3,0-0.5c0-0.9,0-1.7,0-2.3c0-0.6-0.1-1.1-0.2-1.5
						c-0.1-0.4-0.2-0.6-0.4-0.8c-0.1-0.2-0.3-0.3-0.4-0.3s-0.2-0.1-0.3-0.1c0,0,0,0-0.1,0c-0.1,0-0.2,0.2-0.4,0.7
						c-0.1,0.5-0.2,1.1-0.3,1.9C56.7,103.8,56.7,104.7,56.6,105.6"/>
				</g>
				<g>
					<defs>
						<rect id="SVGID_00000106133908680186325750000002312059886901117090_" x="-95.2" y="-44.3" width="329.6" height="233.1"/>
					</defs>
					<clipPath id="SVGID_00000046299686751832502040000017451027072746575492_">
						<use xlink:href="#SVGID_00000106133908680186325750000002312059886901117090_"  style="overflow:visible;"/>
					</clipPath>
					<path style="clip-path:url(#SVGID_00000046299686751832502040000017451027072746575492_);fill:#A5CCDF;" d="M68.5,109.9
						c0.4,0,1-0.1,1.8-0.2c0.8-0.1,1.5-0.2,2.2-0.3c0.2,0,0.4,0,0.7,0.2c0.3,0.1,0.5,0.3,0.5,0.5c0.1,0.3,0.2,0.7,0.2,1
						c0,0,0,0.1,0,0.1c0,0,0,0.1,0,0.1c0,0.2-0.1,0.4-0.2,0.6c-0.2,0.2-0.3,0.3-0.5,0.4c-1.4,0.3-3.1,0.5-5.3,0.5
						c-0.8,0-1.4,0-1.9,0c-0.1,0-0.3,0-0.7-0.1c-0.3,0-0.7-0.1-1-0.3c-0.4-0.2-0.6-0.4-0.7-0.7c-0.1-0.5-0.2-1.3-0.2-2.4
						c0-0.7,0-1.5,0-2.4c0-0.6,0-1.5,0.1-2.7c0-1.2,0.1-2.8,0.2-4.7c0-0.5,0.4-0.9,1.1-1c0.4-0.1,0.9-0.1,1.5-0.1c0.2,0,0.4,0,0.7,0
						c0.3,0,0.5,0.1,0.7,0.1c0.2,0.1,0.4,0.2,0.6,0.4c0.2,0.2,0.3,0.4,0.3,0.6c0,0,0,0.1,0,0.1c-0.1,2-0.2,3.9-0.2,5.6
						c0,0.8,0,1.5,0,2.3c0,0.5,0,1,0,1.4C68.4,109.4,68.5,109.7,68.5,109.9"/>
				</g>
				<g>
					<defs>
						<rect id="SVGID_00000082337786615465625210000014997272202462661009_" x="-95.2" y="-44.3" width="329.6" height="233.1"/>
					</defs>
					<clipPath id="SVGID_00000089544512609803511100000012773958874773375671_">
						<use xlink:href="#SVGID_00000082337786615465625210000014997272202462661009_"  style="overflow:visible;"/>
					</clipPath>
					<path style="clip-path:url(#SVGID_00000089544512609803511100000012773958874773375671_);fill:#A5CCDF;" d="M79.5,112
						c-1.1,0.1-2.1,0-3-0.4c-0.9-0.4-1.6-1.1-2.1-2c-0.5-0.9-0.8-2.2-1-3.6c0-0.4,0-0.8,0-1.2c0-1.3,0.1-2.3,0.4-3.2
						c0.3-0.8,0.6-1.5,1-2c0.4-0.5,0.8-0.9,1.3-1.2c0.4-0.3,0.8-0.5,1.2-0.6c0.3-0.1,0.6-0.2,0.7-0.2c0,0,0.1,0,0.1,0
						c0.1,0,0.2,0,0.5,0c0.2,0,0.5,0.1,0.9,0.2c0.3,0.1,0.7,0.3,1.1,0.6c0.4,0.3,0.8,0.7,1.1,1.2c0.4,0.5,0.7,1.2,1.1,2
						c0.3,0.8,0.6,1.8,0.8,3c0.1,0.6,0.1,1.2,0.1,1.9c0,0.7-0.1,1.3-0.2,1.9c-0.2,0.6-0.4,1.2-0.7,1.7s-0.7,1-1.3,1.3
						C80.9,111.7,80.3,112,79.5,112 M78.3,105.2c0,0.3,0.1,0.7,0.1,1c0.1,1.2,0.3,2,0.5,2.6c0.2,0.6,0.3,0.9,0.5,0.8h0
						c0.4,0,0.7-0.4,1-1.2s0.4-1.9,0.2-3.4c0-0.2,0-0.3-0.1-0.5c-0.1-0.9-0.3-1.7-0.5-2.3c-0.2-0.6-0.4-1-0.5-1.4
						c-0.2-0.3-0.4-0.6-0.5-0.7c-0.2-0.1-0.3-0.2-0.4-0.2c-0.1,0-0.2,0-0.3,0c0,0,0,0-0.1,0c-0.1,0-0.2,0.3-0.2,0.8s0,1.1,0.1,1.9
						C78.2,103.3,78.3,104.2,78.3,105.2"/>
				</g>
				<g>
					<defs>
						<rect id="SVGID_00000155132430131781914050000015573548472451951504_" x="-95.2" y="-44.3" width="329.6" height="233.1"/>
					</defs>
					<clipPath id="SVGID_00000163767719528060151840000014395814615947743151_">
						<use xlink:href="#SVGID_00000155132430131781914050000015573548472451951504_"  style="overflow:visible;"/>
					</clipPath>
					<path style="clip-path:url(#SVGID_00000163767719528060151840000014395814615947743151_);fill:#A5CCDF;" d="M91.7,104
						c0.2,0.5,0.5,0.8,1,1.1s0.9,0.5,1.4,0.7c0.5,0.2,0.8,0.3,1.1,0.3c0.1,0,0.2,0.1,0.3,0.2c0.1,0.1,0.2,0.2,0.2,0.4
						c0,0.1,0,0.3,0,0.4c-0.1,0.4-0.3,0.9-0.7,1.3c-0.3,0.4-0.7,0.7-1,0.8c-0.1,0-0.1,0-0.2,0c-0.5-0.1-1.1-0.3-1.8-0.6
						c-0.6-0.3-1.1-0.7-1.4-1.1c0.1,0.5,0.2,0.8,0.3,1.4c0.1,0.3,0,0.5-0.2,0.7c-0.2,0.2-0.4,0.4-0.7,0.5s-0.5,0.2-0.8,0.3
						c-0.2,0.1-0.4,0.1-0.5,0.1c-0.1,0-0.3,0-0.7,0.1c-0.4,0-0.8,0-1.1-0.1c-0.4-0.1-0.6-0.3-0.7-0.6c-0.1-0.4-0.3-1-0.4-2
						c-0.2-0.9-0.4-1.9-0.6-3c-0.3-1.5-0.5-2.9-0.8-4.4c-0.2-1.4-0.4-2.4-0.5-2.8c0-0.2,0-0.4,0.1-0.6c0.1-0.2,0.3-0.3,0.5-0.4
						c0.4-0.2,0.9-0.3,1.5-0.4c0.3-0.1,0.4-0.1,0.7-0.2c0.3-0.1,0.8-0.1,1.3-0.2c0.5-0.1,1-0.1,1.6-0.1c0.6,0,1.1,0.1,1.6,0.3
						c0.5,0.2,1,0.4,1.4,0.8c0.4,0.4,0.7,0.9,0.9,1.6c0,0.1,0.1,0.3,0.1,0.4c0,0.1,0,0.2,0,0.2c0.1,0.3,0.1,0.7,0.1,1.1
						c0,0.7-0.1,1.3-0.4,1.8s-0.6,0.9-0.9,1.3C92.2,103.7,92,103.9,91.7,104 M89.8,102.1C89.8,102.1,89.8,102.1,89.8,102.1
						C89.8,102.1,89.8,102.1,89.8,102.1c0.2,0,0.3-0.2,0.4-0.6c0.1-0.4,0.1-0.8,0.1-1.3c0-0.5-0.1-0.9-0.2-1.4c0,0,0,0,0,0
						c0-0.2-0.1-0.3-0.3-0.4c-0.1-0.1-0.2-0.1-0.3-0.1h0c-0.2,0.1-0.3,0.2-0.3,0.5c0,0.3,0,0.6,0,1c0.1,0.4,0.1,0.7,0.2,1.1
						c0,0,0,0.1,0,0.1C89.6,101.5,89.6,101.7,89.8,102.1"/>
				</g>
				<g>
					<defs>
						<rect id="SVGID_00000109027732798954282950000002825033622274030249_" x="-95.2" y="-44.3" width="329.6" height="233.1"/>
					</defs>
					<clipPath id="SVGID_00000018233150092342602780000010481802487026479295_">
						<use xlink:href="#SVGID_00000109027732798954282950000002825033622274030249_"  style="overflow:visible;"/>
					</clipPath>
					<path style="clip-path:url(#SVGID_00000018233150092342602780000010481802487026479295_);fill:#A5CCDF;" d="M94.4,95.3
						c0-0.1,0-0.3,0-0.5c0.1-0.2,0.1-0.3,0.2-0.4c0.1-0.1,0.2-0.2,0.4-0.2c0.5-0.3,1.1-0.5,1.8-0.7c0.8-0.3,1.6-0.5,2.3-0.8
						c0.3-0.1,0.5-0.2,0.8-0.3c2-0.7,3.2-0.8,3.4-0.3c0,0,0,0.1,0,0.1c0,0.1,0.1,0.3,0.2,0.5c0.1,0.2,0.1,0.5,0.1,0.7
						c0,0.2-0.1,0.4-0.2,0.6c-0.1,0.2-0.6,0.5-1.4,0.8c-0.8,0.3-1.4,0.5-2,0.7c-0.3,0.1-0.5,0.2-0.8,0.3c0.3,0.8,0.4,1.2,0.7,2.1
						c0,0,0.1,0,0.1,0c0.1-0.1,0.3-0.1,0.6-0.3c0.3-0.1,0.6-0.2,0.7-0.3c0.2-0.1,0.5-0.1,0.7,0c0.3,0.1,0.5,0.2,0.6,0.4
						c0,0,0,0,0,0.1c0,0,0.1,0.1,0.1,0.2h0c0.1,0.4,0.2,0.6,0.4,1h0c0,0.1,0,0.2,0,0.2c0,0,0,0.1,0,0.1c0,0.2-0.1,0.4-0.2,0.7
						c-0.1,0.2-0.3,0.4-0.6,0.5c-0.2,0.1-0.4,0.2-0.8,0.3s-0.6,0.2-0.7,0.2c0,0-0.1,0-0.1,0c0.1,0.2,0.3,0.7,0.6,1.8
						c0.2,0.5,0.2,0.7,0.4,1.2c0.3-0.1,0.4-0.1,0.7-0.2c1.7-0.6,2.8-1.1,3.2-1.4c0,0,0.1,0,0.1-0.1c0.4-0.2,0.8,0,1.1,0.4
						c0.1,0.2,0.3,0.4,0.4,0.7c0.1,0.3,0.2,0.5,0.3,0.6c0.1,0.3-0.1,0.6-0.8,1c-0.6,0.4-2.1,1-4.5,1.8c-0.2,0.1-0.3,0.1-0.6,0.2
						c-0.2,0.1-0.6,0.2-1.2,0.4c-0.6,0.2-1.2,0.3-1.7,0.3s-1-0.3-1.1-0.7c-1-2.8-1.6-4.8-1.9-5.9C95.5,99.8,95,97.9,94.4,95.3"/>
				</g>
				<g>
					<defs>
						<rect id="SVGID_00000038415546485195758120000003552364030912178366_" x="-95.2" y="-44.3" width="329.6" height="233.1"/>
					</defs>
					<clipPath id="SVGID_00000054948592767909816600000014903215403277911978_">
						<use xlink:href="#SVGID_00000038415546485195758120000003552364030912178366_"  style="overflow:visible;"/>
					</clipPath>
					<path style="clip-path:url(#SVGID_00000054948592767909816600000014903215403277911978_);fill:#A5CCDF;" d="M113.2,102.6
						c-0.5,0.2-0.9,0.3-1.3,0.4c-0.4,0.1-0.8,0.1-1.3,0.2c-0.5,0-0.9,0-1.4-0.1c-0.5-0.1-0.9-0.3-1.3-0.6c-0.4-0.3-0.7-0.7-0.9-1.2
						c-0.1-0.3-0.2-0.7-0.2-1.1c0-0.1,0-0.3,0.1-0.5c0.1-0.2,0.2-0.4,0.4-0.5c0.2-0.1,0.4-0.3,0.7-0.4c0.1,0,0.2-0.1,0.4-0.1
						c0.1,0,0.3-0.1,0.4-0.1c0.2,0,0.4,0,0.6,0.2c0.2,0.1,0.4,0.2,0.4,0.4c0.1,0.1,0.2,0.3,0.3,0.5c0.1,0.2,0.3,0.4,0.4,0.5
						c0.2,0.2,0.4,0.3,0.6,0.3c0.2,0.1,0.5,0,0.8-0.1c0.1,0,0.1,0,0.2-0.1c0.3-0.2,0.5-0.3,0.7-0.5c0.2-0.1,0.3-0.3,0.4-0.4
						c0.1-0.2,0.1-0.3,0.1-0.4c0,0-0.1-0.1-0.1-0.1c-0.4-0.1-0.7-0.2-1.2-0.3c-0.4-0.1-0.8-0.1-1.3-0.1c-0.6,0-1.1-0.1-1.7-0.2
						c-0.6-0.1-1.1-0.3-1.6-0.6c-0.5-0.3-1-0.8-1.3-1.4c-0.2-0.3-0.3-0.6-0.4-0.8c-0.3-0.7-0.4-1.3-0.4-2c0-0.6,0.2-1.2,0.4-1.8
						c0.3-0.5,0.6-1,1-1.5c0.4-0.4,0.9-0.8,1.4-1c0,0,0.1,0,0.1,0c0.7-0.3,1.4-0.4,2-0.3c0.6,0.1,1.1,0.3,1.5,0.6
						c0.4,0.3,0.8,0.6,1.1,1c0.3,0.3,0.4,0.6,0.5,0.8c0.1,0.1,0.1,0.3,0,0.6c0,0.3-0.2,0.5-0.3,0.6c0,0-0.1,0.1-0.3,0.2
						s-0.3,0.2-0.4,0.3c-0.1,0-0.1,0.1-0.2,0.1c-0.1,0-0.2,0.1-0.3,0.1c-0.2,0-0.4,0-0.6-0.1c-0.3-0.1-0.4-0.2-0.5-0.4
						c-0.1-0.2-0.2-0.4-0.4-0.6c-0.2-0.2-0.3-0.4-0.5-0.6c-0.2-0.1-0.4-0.2-0.6-0.1c0,0,0,0,0,0c-0.2,0.1-0.3,0.2-0.4,0.4
						c0,0.1,0,0.4,0.1,0.6c0.1,0.3,0.4,0.5,0.6,0.7c0.3,0.1,0.7,0.3,1.3,0.4c0.4,0.1,0.9,0.2,1.4,0.3c0.5,0.1,1.1,0.3,1.6,0.5
						c0.5,0.2,1.1,0.6,1.6,1c0.5,0.4,0.9,1,1.3,1.7c0,0,0.1,0.1,0.1,0.3c0.1,0.2,0.1,0.4,0.1,0.8c0,0.3,0,0.7,0,1.1
						c0,0.4-0.2,0.8-0.4,1.2c-0.2,0.4-0.5,0.8-1,1.2c-0.4,0.4-1,0.8-1.7,1.1c-0.1,0-0.2,0.1-0.3,0.1
						C113.4,102.5,113.3,102.5,113.2,102.6"/>
				</g>
			</g>
		</g>
	</g>
</g>
</svg>
